STARTFONT 2.1
COMMENT
COMMENT Converted from OpenType font "Amstrad-CPC-extended.ttf" by "otf2bdf 3.0".
COMMENT
FONT -FreeType-Amstrad CPC extended-Medium-R-Normal--8-80-72-72-P-64-ISO10646-1
SIZE 8 72 72
FONTBOUNDINGBOX 8 8 0 0
STARTPROPERTIES 19
FOUNDRY "FreeType"
FAMILY_NAME "Amstrad CPC extended"
WEIGHT_NAME "Medium"
SLANT "R"
SETWIDTH_NAME "Normal"
ADD_STYLE_NAME ""
PIXEL_SIZE 8
POINT_SIZE 80
RESOLUTION_X 72
RESOLUTION_Y 72
SPACING "P"
AVERAGE_WIDTH 64
CHARSET_REGISTRY "ISO10646"
CHARSET_ENCODING "1"
FONT_ASCENT 8
FONT_DESCENT 0
COPYRIGHT "Copyright ruboku 2008"
_OTF_FONTFILE "Amstrad-CPC-extended.ttf"
_OTF_PSNAME "Amstrad-CPC-extended"
ENDPROPERTIES
CHARS 196
STARTCHAR 0020
ENCODING 32
SWIDTH 375 0
DWIDTH 3 0
BBX 0 0 0 0
BITMAP
ENDCHAR
STARTCHAR 0021
ENCODING 33
SWIDTH 750 0
DWIDTH 6 0
BBX 2 7 3 1
BITMAP
C0
C0
C0
C0
C0
00
C0
ENDCHAR
STARTCHAR 0022
ENCODING 34
SWIDTH 875 0
DWIDTH 7 0
BBX 5 3 1 5
BITMAP
D8
D8
D8
ENDCHAR
STARTCHAR 0023
ENCODING 35
SWIDTH 1000 0
DWIDTH 8 0
BBX 7 7 0 1
BITMAP
6C
6C
FE
7C
FE
6C
6C
ENDCHAR
STARTCHAR 0024
ENCODING 36
SWIDTH 1000 0
DWIDTH 8 0
BBX 6 7 1 1
BITMAP
30
7C
B0
78
34
F8
30
ENDCHAR
STARTCHAR 0025
ENCODING 37
SWIDTH 1000 0
DWIDTH 8 0
BBX 7 6 0 1
BITMAP
C6
CC
18
30
66
C6
ENDCHAR
STARTCHAR 0026
ENCODING 38
SWIDTH 1000 0
DWIDTH 8 0
BBX 7 7 0 1
BITMAP
38
6C
38
76
DC
CC
76
ENDCHAR
STARTCHAR 0027
ENCODING 39
SWIDTH 750 0
DWIDTH 6 0
BBX 2 3 3 5
BITMAP
C0
C0
C0
ENDCHAR
STARTCHAR 0028
ENCODING 40
SWIDTH 875 0
DWIDTH 7 0
BBX 4 7 2 1
BITMAP
30
60
C0
C0
C0
60
30
ENDCHAR
STARTCHAR 0029
ENCODING 41
SWIDTH 875 0
DWIDTH 7 0
BBX 4 7 2 1
BITMAP
C0
60
30
30
30
60
C0
ENDCHAR
STARTCHAR 002A
ENCODING 42
SWIDTH 1125 0
DWIDTH 9 0
BBX 8 5 0 2
BITMAP
66
3C
FF
3C
66
ENDCHAR
STARTCHAR 002B
ENCODING 43
SWIDTH 1000 0
DWIDTH 8 0
BBX 6 5 1 2
BITMAP
30
30
FC
30
30
ENDCHAR
STARTCHAR 002C
ENCODING 44
SWIDTH 750 0
DWIDTH 6 0
BBX 3 3 2 0
BITMAP
60
60
C0
ENDCHAR
STARTCHAR 002D
ENCODING 45
SWIDTH 1000 0
DWIDTH 8 0
BBX 6 1 1 4
BITMAP
FC
ENDCHAR
STARTCHAR 002E
ENCODING 46
SWIDTH 750 0
DWIDTH 6 0
BBX 2 2 3 1
BITMAP
C0
C0
ENDCHAR
STARTCHAR 002F
ENCODING 47
SWIDTH 1000 0
DWIDTH 8 0
BBX 7 7 0 1
BITMAP
06
0C
18
30
60
C0
80
ENDCHAR
STARTCHAR 0030
ENCODING 48
SWIDTH 1000 0
DWIDTH 8 0
BBX 7 7 0 1
BITMAP
7C
C6
CE
D6
E6
C6
7C
ENDCHAR
STARTCHAR 0031
ENCODING 49
SWIDTH 1000 0
DWIDTH 8 0
BBX 6 7 1 1
BITMAP
30
70
30
30
30
30
FC
ENDCHAR
STARTCHAR 0032
ENCODING 50
SWIDTH 1000 0
DWIDTH 8 0
BBX 6 7 1 1
BITMAP
78
CC
0C
78
C0
CC
FC
ENDCHAR
STARTCHAR 0033
ENCODING 51
SWIDTH 1000 0
DWIDTH 8 0
BBX 6 7 1 1
BITMAP
78
8C
0C
38
0C
CC
78
ENDCHAR
STARTCHAR 0034
ENCODING 52
SWIDTH 1000 0
DWIDTH 8 0
BBX 7 7 0 1
BITMAP
18
38
58
98
FE
18
3C
ENDCHAR
STARTCHAR 0035
ENCODING 53
SWIDTH 1000 0
DWIDTH 8 0
BBX 6 7 1 1
BITMAP
FC
C4
C0
78
0C
CC
78
ENDCHAR
STARTCHAR 0036
ENCODING 54
SWIDTH 1000 0
DWIDTH 8 0
BBX 6 7 1 1
BITMAP
78
CC
C0
F8
CC
CC
78
ENDCHAR
STARTCHAR 0037
ENCODING 55
SWIDTH 1000 0
DWIDTH 8 0
BBX 6 7 1 1
BITMAP
FC
8C
1C
18
30
30
30
ENDCHAR
STARTCHAR 0038
ENCODING 56
SWIDTH 1000 0
DWIDTH 8 0
BBX 6 7 1 1
BITMAP
78
CC
CC
78
CC
CC
78
ENDCHAR
STARTCHAR 0039
ENCODING 57
SWIDTH 1000 0
DWIDTH 8 0
BBX 6 7 1 1
BITMAP
78
CC
CC
7C
0C
CC
78
ENDCHAR
STARTCHAR 003A
ENCODING 58
SWIDTH 750 0
DWIDTH 6 0
BBX 2 5 3 1
BITMAP
C0
C0
00
C0
C0
ENDCHAR
STARTCHAR 003B
ENCODING 59
SWIDTH 750 0
DWIDTH 6 0
BBX 3 6 2 0
BITMAP
60
60
00
60
60
C0
ENDCHAR
STARTCHAR 003C
ENCODING 60
SWIDTH 875 0
DWIDTH 7 0
BBX 5 7 1 1
BITMAP
18
30
60
C0
60
30
18
ENDCHAR
STARTCHAR 003D
ENCODING 61
SWIDTH 1000 0
DWIDTH 8 0
BBX 6 4 1 2
BITMAP
FC
00
00
FC
ENDCHAR
STARTCHAR 003E
ENCODING 62
SWIDTH 875 0
DWIDTH 7 0
BBX 5 7 1 1
BITMAP
C0
60
30
18
30
60
C0
ENDCHAR
STARTCHAR 003F
ENCODING 63
SWIDTH 1000 0
DWIDTH 8 0
BBX 6 7 1 1
BITMAP
78
CC
0C
18
30
00
30
ENDCHAR
STARTCHAR 0040
ENCODING 64
SWIDTH 1000 0
DWIDTH 8 0
BBX 7 7 0 1
BITMAP
7C
C6
DE
DE
DE
C0
7C
ENDCHAR
STARTCHAR 0041
ENCODING 65
SWIDTH 1000 0
DWIDTH 8 0
BBX 6 7 1 1
BITMAP
30
78
CC
CC
FC
CC
CC
ENDCHAR
STARTCHAR 0042
ENCODING 66
SWIDTH 1000 0
DWIDTH 8 0
BBX 7 7 0 1
BITMAP
FC
66
66
7C
66
66
FC
ENDCHAR
STARTCHAR 0043
ENCODING 67
SWIDTH 1000 0
DWIDTH 8 0
BBX 7 7 0 1
BITMAP
3C
66
C0
C0
C0
66
3C
ENDCHAR
STARTCHAR 0044
ENCODING 68
SWIDTH 1000 0
DWIDTH 8 0
BBX 7 7 0 1
BITMAP
F8
6C
66
66
66
6C
F8
ENDCHAR
STARTCHAR 0045
ENCODING 69
SWIDTH 1000 0
DWIDTH 8 0
BBX 7 7 0 1
BITMAP
FE
62
68
78
68
62
FE
ENDCHAR
STARTCHAR 0046
ENCODING 70
SWIDTH 1000 0
DWIDTH 8 0
BBX 7 7 0 1
BITMAP
FE
62
68
78
68
60
F0
ENDCHAR
STARTCHAR 0047
ENCODING 71
SWIDTH 1000 0
DWIDTH 8 0
BBX 7 7 0 1
BITMAP
3C
66
C0
C0
CE
C6
7E
ENDCHAR
STARTCHAR 0048
ENCODING 72
SWIDTH 1000 0
DWIDTH 8 0
BBX 6 7 1 1
BITMAP
CC
CC
CC
FC
CC
CC
CC
ENDCHAR
STARTCHAR 0049
ENCODING 73
SWIDTH 1000 0
DWIDTH 8 0
BBX 6 7 1 1
BITMAP
FC
30
30
30
30
30
FC
ENDCHAR
STARTCHAR 004A
ENCODING 74
SWIDTH 1000 0
DWIDTH 8 0
BBX 7 7 0 1
BITMAP
1E
0C
0C
0C
CC
CC
78
ENDCHAR
STARTCHAR 004B
ENCODING 75
SWIDTH 1000 0
DWIDTH 8 0
BBX 7 7 0 1
BITMAP
E6
66
6C
78
6C
66
E6
ENDCHAR
STARTCHAR 004C
ENCODING 76
SWIDTH 1000 0
DWIDTH 8 0
BBX 7 7 0 1
BITMAP
F0
60
60
60
62
66
FE
ENDCHAR
STARTCHAR 004D
ENCODING 77
SWIDTH 1000 0
DWIDTH 8 0
BBX 7 7 0 1
BITMAP
C6
EE
FE
FE
D6
C6
C6
ENDCHAR
STARTCHAR 004E
ENCODING 78
SWIDTH 1000 0
DWIDTH 8 0
BBX 7 7 0 1
BITMAP
C6
E6
F6
DE
CE
C6
C6
ENDCHAR
STARTCHAR 004F
ENCODING 79
SWIDTH 1000 0
DWIDTH 8 0
BBX 7 7 0 1
BITMAP
38
6C
C6
C6
C6
6C
38
ENDCHAR
STARTCHAR 0050
ENCODING 80
SWIDTH 1000 0
DWIDTH 8 0
BBX 7 7 0 1
BITMAP
FC
66
66
78
60
60
F0
ENDCHAR
STARTCHAR 0051
ENCODING 81
SWIDTH 1000 0
DWIDTH 8 0
BBX 7 7 0 1
BITMAP
38
6C
C6
C6
DA
CC
76
ENDCHAR
STARTCHAR 0052
ENCODING 82
SWIDTH 1000 0
DWIDTH 8 0
BBX 7 7 0 1
BITMAP
FC
66
66
7C
6C
66
E2
ENDCHAR
STARTCHAR 0053
ENCODING 83
SWIDTH 1000 0
DWIDTH 8 0
BBX 6 7 1 1
BITMAP
78
CC
C0
78
0C
CC
78
ENDCHAR
STARTCHAR 0054
ENCODING 84
SWIDTH 1000 0
DWIDTH 8 0
BBX 6 7 1 1
BITMAP
FC
B4
30
30
30
30
78
ENDCHAR
STARTCHAR 0055
ENCODING 85
SWIDTH 1000 0
DWIDTH 8 0
BBX 6 7 1 1
BITMAP
CC
CC
CC
CC
CC
CC
78
ENDCHAR
STARTCHAR 0056
ENCODING 86
SWIDTH 1000 0
DWIDTH 8 0
BBX 6 7 1 1
BITMAP
CC
CC
CC
CC
CC
78
30
ENDCHAR
STARTCHAR 0057
ENCODING 87
SWIDTH 1000 0
DWIDTH 8 0
BBX 7 7 0 1
BITMAP
C6
C6
C6
D6
FE
EE
C6
ENDCHAR
STARTCHAR 0058
ENCODING 88
SWIDTH 1000 0
DWIDTH 8 0
BBX 7 7 0 1
BITMAP
C6
6C
38
38
6C
C6
C6
ENDCHAR
STARTCHAR 0059
ENCODING 89
SWIDTH 1000 0
DWIDTH 8 0
BBX 6 7 1 1
BITMAP
CC
CC
CC
78
30
30
78
ENDCHAR
STARTCHAR 005A
ENCODING 90
SWIDTH 1000 0
DWIDTH 8 0
BBX 7 7 0 1
BITMAP
FE
C6
8C
18
32
66
FE
ENDCHAR
STARTCHAR 005B
ENCODING 91
SWIDTH 875 0
DWIDTH 7 0
BBX 4 7 2 1
BITMAP
F0
C0
C0
C0
C0
C0
F0
ENDCHAR
STARTCHAR 005C
ENCODING 92
SWIDTH 1000 0
DWIDTH 8 0
BBX 7 7 0 1
BITMAP
C0
60
30
18
0C
06
02
ENDCHAR
STARTCHAR 005D
ENCODING 93
SWIDTH 875 0
DWIDTH 7 0
BBX 4 7 2 1
BITMAP
F0
30
30
30
30
30
F0
ENDCHAR
STARTCHAR 005E
ENCODING 94
SWIDTH 1000 0
DWIDTH 8 0
BBX 7 4 0 4
BITMAP
10
38
6C
C6
ENDCHAR
STARTCHAR 005F
ENCODING 95
SWIDTH 1125 0
DWIDTH 9 0
BBX 8 1 0 0
BITMAP
FF
ENDCHAR
STARTCHAR 0060
ENCODING 96
SWIDTH 875 0
DWIDTH 7 0
BBX 4 3 2 4
BITMAP
C0
60
30
ENDCHAR
STARTCHAR 0061
ENCODING 97
SWIDTH 1000 0
DWIDTH 8 0
BBX 7 5 0 1
BITMAP
78
0C
7C
CC
76
ENDCHAR
STARTCHAR 0062
ENCODING 98
SWIDTH 1000 0
DWIDTH 8 0
BBX 7 7 0 1
BITMAP
E0
E0
7C
66
66
66
BC
ENDCHAR
STARTCHAR 0063
ENCODING 99
SWIDTH 1000 0
DWIDTH 8 0
BBX 6 5 1 1
BITMAP
78
CC
C0
CC
78
ENDCHAR
STARTCHAR 0064
ENCODING 100
SWIDTH 1000 0
DWIDTH 8 0
BBX 7 7 0 1
BITMAP
1C
0C
7C
CC
CC
CC
76
ENDCHAR
STARTCHAR 0065
ENCODING 101
SWIDTH 1000 0
DWIDTH 8 0
BBX 6 5 1 1
BITMAP
78
CC
FC
C0
78
ENDCHAR
STARTCHAR 0066
ENCODING 102
SWIDTH 1000 0
DWIDTH 8 0
BBX 6 7 1 1
BITMAP
38
6C
60
F0
60
60
F0
ENDCHAR
STARTCHAR 0067
ENCODING 103
SWIDTH 1000 0
DWIDTH 8 0
BBX 6 6 1 0
BITMAP
7C
CC
CC
7C
0C
F8
ENDCHAR
STARTCHAR 0068
ENCODING 104
SWIDTH 1000 0
DWIDTH 8 0
BBX 7 7 0 1
BITMAP
E0
60
6C
76
66
66
E6
ENDCHAR
STARTCHAR 0069
ENCODING 105
SWIDTH 875 0
DWIDTH 7 0
BBX 4 7 2 1
BITMAP
60
00
E0
60
60
60
F0
ENDCHAR
STARTCHAR 006A
ENCODING 106
SWIDTH 1000 0
DWIDTH 8 0
BBX 6 8 1 0
BITMAP
04
00
1C
0C
0C
CC
CC
78
ENDCHAR
STARTCHAR 006B
ENCODING 107
SWIDTH 1000 0
DWIDTH 8 0
BBX 7 7 0 1
BITMAP
E0
60
66
6C
78
6C
E6
ENDCHAR
STARTCHAR 006C
ENCODING 108
SWIDTH 875 0
DWIDTH 7 0
BBX 4 7 2 1
BITMAP
E0
60
60
60
60
60
F0
ENDCHAR
STARTCHAR 006D
ENCODING 109
SWIDTH 1000 0
DWIDTH 8 0
BBX 7 5 0 1
BITMAP
6C
FE
D6
D6
C6
ENDCHAR
STARTCHAR 006E
ENCODING 110
SWIDTH 1000 0
DWIDTH 8 0
BBX 7 5 0 1
BITMAP
D8
66
66
66
66
ENDCHAR
STARTCHAR 006F
ENCODING 111
SWIDTH 1000 0
DWIDTH 8 0
BBX 6 5 1 1
BITMAP
78
CC
CC
CC
78
ENDCHAR
STARTCHAR 0070
ENCODING 112
SWIDTH 1000 0
DWIDTH 8 0
BBX 7 6 0 0
BITMAP
DC
66
66
7C
60
F0
ENDCHAR
STARTCHAR 0071
ENCODING 113
SWIDTH 1000 0
DWIDTH 8 0
BBX 7 6 0 0
BITMAP
76
CC
CC
7C
0C
1E
ENDCHAR
STARTCHAR 0072
ENCODING 114
SWIDTH 875 0
DWIDTH 7 0
BBX 6 5 0 1
BITMAP
D8
6C
60
60
F0
ENDCHAR
STARTCHAR 0073
ENCODING 115
SWIDTH 1000 0
DWIDTH 8 0
BBX 6 5 1 1
BITMAP
78
C0
78
0C
F8
ENDCHAR
STARTCHAR 0074
ENCODING 116
SWIDTH 1000 0
DWIDTH 8 0
BBX 6 7 1 1
BITMAP
60
60
F8
60
60
6C
38
ENDCHAR
STARTCHAR 0075
ENCODING 117
SWIDTH 1000 0
DWIDTH 8 0
BBX 6 5 1 1
BITMAP
CC
CC
CC
CC
7C
ENDCHAR
STARTCHAR 0076
ENCODING 118
SWIDTH 1000 0
DWIDTH 8 0
BBX 6 5 1 1
BITMAP
CC
CC
CC
78
30
ENDCHAR
STARTCHAR 0077
ENCODING 119
SWIDTH 1000 0
DWIDTH 8 0
BBX 7 5 0 1
BITMAP
C6
D6
D6
FE
6C
ENDCHAR
STARTCHAR 0078
ENCODING 120
SWIDTH 1000 0
DWIDTH 8 0
BBX 7 5 0 1
BITMAP
C6
6C
38
6C
C6
ENDCHAR
STARTCHAR 0079
ENCODING 121
SWIDTH 1000 0
DWIDTH 8 0
BBX 6 6 1 0
BITMAP
CC
CC
CC
7C
0C
F8
ENDCHAR
STARTCHAR 007A
ENCODING 122
SWIDTH 1000 0
DWIDTH 8 0
BBX 6 5 1 1
BITMAP
FC
98
30
60
FC
ENDCHAR
STARTCHAR 007B
ENCODING 123
SWIDTH 1000 0
DWIDTH 8 0
BBX 6 7 1 1
BITMAP
E0
30
30
1C
30
30
E0
ENDCHAR
STARTCHAR 007C
ENCODING 124
SWIDTH 750 0
DWIDTH 6 0
BBX 2 7 3 1
BITMAP
C0
C0
C0
C0
C0
C0
C0
ENDCHAR
STARTCHAR 007D
ENCODING 125
SWIDTH 1000 0
DWIDTH 8 0
BBX 6 7 1 1
BITMAP
1C
30
30
E0
30
30
1C
ENDCHAR
STARTCHAR 007E
ENCODING 126
SWIDTH 1000 0
DWIDTH 8 0
BBX 7 2 0 6
BITMAP
76
D8
ENDCHAR

STARTCHAR U8X8EXTRA_128
ENCODING 128

DWIDTH 8 0
BBX 2 8 3 0
BITMAP
C0
C0
C0
C0
C0
C0
C0
C0
ENDCHAR
STARTCHAR U8X8EXTRA_129
ENCODING 129

DWIDTH 8 0
BBX 8 2 0 3
BITMAP
FF
FF
ENDCHAR
STARTCHAR U8X8EXTRA_130
ENCODING 130

DWIDTH 8 0
BBX 5 5 3 3
BITMAP
C0
C0
C0
F8
F8
ENDCHAR
STARTCHAR U8X8EXTRA_131
ENCODING 131

DWIDTH 8 0
BBX 5 5 3 0
BITMAP
F8
F8
C0
C0
C0
ENDCHAR
STARTCHAR U8X8EXTRA_132
ENCODING 132

DWIDTH 8 0
BBX 5 5 0 0
BITMAP
F8
F8
18
18
18
ENDCHAR
STARTCHAR U8X8EXTRA_133
ENCODING 133

DWIDTH 8 0
BBX 5 5 0 3
BITMAP
18
18
18
F8
F8
ENDCHAR
STARTCHAR U8X8EXTRA_134
ENCODING 134

DWIDTH 8 0
BBX 8 5 0 3
BITMAP
18
18
18
FF
FF
ENDCHAR
STARTCHAR U8X8EXTRA_135
ENCODING 135

DWIDTH 8 0
BBX 5 8 3 0
BITMAP
C0
C0
C0
F8
F8
C0
C0
C0
ENDCHAR
STARTCHAR U8X8EXTRA_136
ENCODING 136

DWIDTH 8 0
BBX 8 5 0 0
BITMAP
FF
FF
18
18
18
ENDCHAR
STARTCHAR U8X8EXTRA_137
ENCODING 137

DWIDTH 8 0
BBX 5 8 0 0
BITMAP
18
18
18
F8
F8
18
18
18
ENDCHAR
STARTCHAR U8X8EXTRA_138
ENCODING 138

DWIDTH 8 0
BBX 8 8 0 0
BITMAP
18
18
18
FF
FF
18
18
18
ENDCHAR
STARTCHAR U8X8EXTRA_139
ENCODING 139

DWIDTH 8 0
BBX 6 5 1 2
BITMAP
20
60
FC
60
20
ENDCHAR
STARTCHAR U8X8EXTRA_140
ENCODING 140

DWIDTH 8 0
BBX 5 5 1 2
BITMAP
20
70
F8
20
20
ENDCHAR
STARTCHAR U8X8EXTRA_141
ENCODING 141

DWIDTH 8 0
BBX 6 5 1 2
BITMAP
10
18
FC
18
10
ENDCHAR
STARTCHAR U8X8EXTRA_142
ENCODING 142

DWIDTH 8 0
BBX 5 5 1 2
BITMAP
20
20
F8
70
20
ENDCHAR
STARTCHAR U8X8EXTRA_143
ENCODING 143

DWIDTH 8 0
BBX 4 4 4 0
BITMAP
F0
F0
F0
F0
ENDCHAR
STARTCHAR U8X8EXTRA_144
ENCODING 144

DWIDTH 8 0
BBX 4 4 0 0
BITMAP
F0
F0
F0
F0
ENDCHAR
STARTCHAR U8X8EXTRA_145
ENCODING 145

DWIDTH 8 0
BBX 8 4 0 0
BITMAP
FF
FF
FF
FF
ENDCHAR
STARTCHAR U8X8EXTRA_146
ENCODING 146

DWIDTH 8 0
BBX 4 4 4 4
BITMAP
F0
F0
F0
F0
ENDCHAR
STARTCHAR U8X8EXTRA_147
ENCODING 147

DWIDTH 8 0
BBX 4 8 4 0
BITMAP
F0
F0
F0
F0
F0
F0
F0
F0
ENDCHAR
STARTCHAR U8X8EXTRA_148
ENCODING 148

DWIDTH 8 0
BBX 8 8 0 0
BITMAP
0F
0F
0F
0F
F0
F0
F0
F0
ENDCHAR
STARTCHAR U8X8EXTRA_149
ENCODING 149

DWIDTH 8 0
BBX 8 8 0 0
BITMAP
0F
0F
0F
0F
FF
FF
FF
FF
ENDCHAR
STARTCHAR U8X8EXTRA_150
ENCODING 150

DWIDTH 8 0
BBX 4 4 0 4
BITMAP
F0
F0
F0
F0
ENDCHAR
STARTCHAR U8X8EXTRA_151
ENCODING 151

DWIDTH 8 0
BBX 8 8 0 0
BITMAP
F0
F0
F0
F0
0F
0F
0F
0F
ENDCHAR
STARTCHAR U8X8EXTRA_152
ENCODING 152

DWIDTH 8 0
BBX 4 8 0 0
BITMAP
F0
F0
F0
F0
F0
F0
F0
F0
ENDCHAR
STARTCHAR U8X8EXTRA_153
ENCODING 153

DWIDTH 8 0
BBX 8 8 0 0
BITMAP
F0
F0
F0
F0
FF
FF
FF
FF
ENDCHAR
STARTCHAR U8X8EXTRA_154
ENCODING 154

DWIDTH 8 0
BBX 8 4 0 4
BITMAP
FF
FF
FF
FF
ENDCHAR
STARTCHAR U8X8EXTRA_155
ENCODING 155

DWIDTH 8 0
BBX 8 8 0 0
BITMAP
FF
FF
FF
FF
0F
0F
0F
0F
ENDCHAR
STARTCHAR U8X8EXTRA_156
ENCODING 156

DWIDTH 8 0
BBX 8 8 0 0
BITMAP
FF
FF
FF
FF
F0
F0
F0
F0
ENDCHAR
STARTCHAR U8X8EXTRA_157
ENCODING 157

DWIDTH 8 0
BBX 8 8 0 0
BITMAP
FF
FF
FF
FF
FF
FF
FF
FF
ENDCHAR
STARTCHAR U8X8EXTRA_158
ENCODING 158

DWIDTH 8 0
BBX 8 2 0 0
BITMAP
FF
FF
ENDCHAR
STARTCHAR U8X8EXTRA_159
ENCODING 159

DWIDTH 8 0
BBX 8 6 0 0
BITMAP
FF
FF
FF
FF
FF
FF
ENDCHAR


STARTCHAR 00A1
ENCODING 161
SWIDTH 750 0
DWIDTH 6 0
BBX 2 7 3 1
BITMAP
C0
00
C0
C0
C0
C0
C0
ENDCHAR
STARTCHAR 00A2
ENCODING 162
SWIDTH 1000 0
DWIDTH 8 0
BBX 7 7 0 0
BITMAP
10
7C
D6
D0
D6
7C
10
ENDCHAR
STARTCHAR 00A3
ENCODING 163
SWIDTH 1000 0
DWIDTH 8 0
BBX 7 7 0 1
BITMAP
3C
66
60
F8
60
66
FE
ENDCHAR
STARTCHAR 00A4
ENCODING 164
SWIDTH 1000 0
DWIDTH 8 0
BBX 6 6 1 1
BITMAP
84
78
CC
CC
78
84
ENDCHAR
STARTCHAR 00A5
ENCODING 165
SWIDTH 1000 0
DWIDTH 8 0
BBX 6 7 1 1
BITMAP
CC
78
FC
30
FC
30
78
ENDCHAR
STARTCHAR 00A6
ENCODING 166
SWIDTH 750 0
DWIDTH 6 0
BBX 2 7 3 1
BITMAP
C0
C0
C0
00
C0
C0
C0
ENDCHAR
STARTCHAR 00A7
ENCODING 167
SWIDTH 1000 0
DWIDTH 8 0
BBX 7 7 0 1
BITMAP
1E
30
38
6C
38
30
F0
ENDCHAR
STARTCHAR 00A8
ENCODING 168
SWIDTH 1000 0
DWIDTH 8 0
BBX 6 2 1 6
BITMAP
CC
CC
ENDCHAR
STARTCHAR 00A9
ENCODING 169
SWIDTH 1000 0
DWIDTH 8 0
BBX 7 7 0 1
BITMAP
38
44
BA
A2
BA
44
38
ENDCHAR
STARTCHAR 00AA
ENCODING 170
SWIDTH 875 0
DWIDTH 7 0
BBX 6 7 0 1
BITMAP
70
18
78
D8
6C
00
FC
ENDCHAR
STARTCHAR 00AB
ENCODING 171
SWIDTH 1000 0
DWIDTH 8 0
BBX 7 5 0 2
BITMAP
36
6C
D8
6C
36
ENDCHAR
STARTCHAR 00AC
ENCODING 172
SWIDTH 1000 0
DWIDTH 8 0
BBX 6 2 1 3
BITMAP
FC
04
ENDCHAR
STARTCHAR 00AD
ENCODING 173
SWIDTH 750 0
DWIDTH 6 0
BBX 3 1 2 3
BITMAP
E0
ENDCHAR
STARTCHAR 00AE
ENCODING 174
SWIDTH 1000 0
DWIDTH 8 0
BBX 7 7 0 1
BITMAP
38
44
BA
B2
AA
44
38
ENDCHAR
STARTCHAR 00AF
ENCODING 175
SWIDTH 875 0
DWIDTH 7 0
BBX 4 1 2 7
BITMAP
F0
ENDCHAR
STARTCHAR 00B0
ENCODING 176
SWIDTH 875 0
DWIDTH 7 0
BBX 5 5 1 3
BITMAP
70
D8
88
D8
70
ENDCHAR
STARTCHAR 00B1
ENCODING 177
SWIDTH 1000 0
DWIDTH 8 0
BBX 6 6 1 1
BITMAP
30
30
FC
30
30
FC
ENDCHAR
STARTCHAR 00B2
ENCODING 178
SWIDTH 875 0
DWIDTH 7 0
BBX 5 5 1 3
BITMAP
F0
18
70
C0
F8
ENDCHAR
STARTCHAR 00B3
ENCODING 179
SWIDTH 875 0
DWIDTH 7 0
BBX 5 5 1 3
BITMAP
F0
18
70
18
F0
ENDCHAR
STARTCHAR 00B4
ENCODING 180
SWIDTH 750 0
DWIDTH 6 0
BBX 3 3 2 5
BITMAP
60
60
C0
ENDCHAR
STARTCHAR 00B5
ENCODING 181
SWIDTH 1000 0
DWIDTH 8 0
BBX 6 5 1 0
BITMAP
CC
CC
CC
F8
C0
ENDCHAR
STARTCHAR 00B6
ENCODING 182
SWIDTH 1000 0
DWIDTH 8 0
BBX 7 7 0 1
BITMAP
7E
F4
74
74
34
34
34
ENDCHAR
STARTCHAR 00B7
ENCODING 183
SWIDTH 750 0
DWIDTH 6 0
BBX 2 2 3 3
BITMAP
C0
C0
ENDCHAR
STARTCHAR 00B8
ENCODING 184
SWIDTH 750 0
DWIDTH 6 0
BBX 3 2 2 1
BITMAP
20
E0
ENDCHAR
STARTCHAR 00B9
ENCODING 185
SWIDTH 875 0
DWIDTH 7 0
BBX 4 5 2 3
BITMAP
E0
60
60
60
F0
ENDCHAR
STARTCHAR 00BA
ENCODING 186
SWIDTH 875 0
DWIDTH 7 0
BBX 5 7 1 1
BITMAP
70
D8
88
D8
70
00
F8
ENDCHAR
STARTCHAR 00BB
ENCODING 187
SWIDTH 1000 0
DWIDTH 8 0
BBX 7 5 0 2
BITMAP
D8
6C
36
6C
D8
ENDCHAR
STARTCHAR 00BC
ENCODING 188
SWIDTH 1000 0
DWIDTH 8 0
BBX 7 7 0 1
BITMAP
40
C0
44
4C
54
1E
04
ENDCHAR
STARTCHAR 00BD
ENCODING 189
SWIDTH 1000 0
DWIDTH 8 0
BBX 7 7 0 1
BITMAP
40
C0
4C
52
44
08
1E
ENDCHAR
STARTCHAR 00BE
ENCODING 190
SWIDTH 1125 0
DWIDTH 9 0
BBX 8 7 0 1
BITMAP
E0
10
62
16
EA
0F
02
ENDCHAR
STARTCHAR 00BF
ENCODING 191
SWIDTH 1000 0
DWIDTH 8 0
BBX 6 7 1 1
BITMAP
30
00
30
60
CC
CC
78
ENDCHAR
STARTCHAR 00C0
ENCODING 192
SWIDTH 1000 0
DWIDTH 8 0
BBX 6 7 1 1
BITMAP
60
00
78
CC
FC
CC
CC
ENDCHAR
STARTCHAR 00C1
ENCODING 193
SWIDTH 1000 0
DWIDTH 8 0
BBX 6 7 1 1
BITMAP
18
00
78
CC
FC
CC
CC
ENDCHAR
STARTCHAR 00C2
ENCODING 194
SWIDTH 1000 0
DWIDTH 8 0
BBX 6 7 1 1
BITMAP
30
00
78
CC
FC
CC
CC
ENDCHAR
STARTCHAR 00C3
ENCODING 195
SWIDTH 1000 0
DWIDTH 8 0
BBX 6 7 1 1
BITMAP
78
00
78
CC
FC
CC
CC
ENDCHAR
STARTCHAR 00C4
ENCODING 196
SWIDTH 1000 0
DWIDTH 8 0
BBX 6 7 1 1
BITMAP
CC
00
78
CC
FC
CC
CC
ENDCHAR
STARTCHAR 00C5
ENCODING 197
SWIDTH 1000 0
DWIDTH 8 0
BBX 6 7 1 1
BITMAP
30
48
78
CC
FC
CC
CC
ENDCHAR
STARTCHAR 00C6
ENCODING 198
SWIDTH 1000 0
DWIDTH 8 0
BBX 7 7 0 1
BITMAP
1E
3A
58
DE
F8
DA
DE
ENDCHAR
STARTCHAR 00C7
ENCODING 199
SWIDTH 1000 0
DWIDTH 8 0
BBX 7 8 0 0
BITMAP
3C
66
C0
C0
66
3C
18
78
ENDCHAR
STARTCHAR 00C8
ENCODING 200
SWIDTH 1000 0
DWIDTH 8 0
BBX 7 7 0 1
BITMAP
60
00
FE
60
7C
60
FE
ENDCHAR
STARTCHAR 00C9
ENCODING 201
SWIDTH 1000 0
DWIDTH 8 0
BBX 7 7 0 1
BITMAP
18
00
FE
60
7C
60
FE
ENDCHAR
STARTCHAR 00CA
ENCODING 202
SWIDTH 1000 0
DWIDTH 8 0
BBX 7 7 0 1
BITMAP
3C
00
FE
60
7C
60
FE
ENDCHAR
STARTCHAR 00CB
ENCODING 203
SWIDTH 1000 0
DWIDTH 8 0
BBX 7 7 0 1
BITMAP
6C
00
FE
60
7C
60
FE
ENDCHAR
STARTCHAR 00CC
ENCODING 204
SWIDTH 1000 0
DWIDTH 8 0
BBX 6 7 1 1
BITMAP
60
00
FC
30
30
30
FC
ENDCHAR
STARTCHAR 00CD
ENCODING 205
SWIDTH 1000 0
DWIDTH 8 0
BBX 6 7 1 1
BITMAP
18
00
FC
30
30
30
FC
ENDCHAR
STARTCHAR 00CE
ENCODING 206
SWIDTH 1000 0
DWIDTH 8 0
BBX 6 7 1 1
BITMAP
78
00
FC
30
30
30
FC
ENDCHAR
STARTCHAR 00CF
ENCODING 207
SWIDTH 1000 0
DWIDTH 8 0
BBX 6 7 1 1
BITMAP
CC
00
FC
30
30
30
FC
ENDCHAR
STARTCHAR 00D0
ENCODING 208
SWIDTH 1000 0
DWIDTH 8 0
BBX 7 7 0 1
BITMAP
F8
6C
66
F6
66
6C
F8
ENDCHAR
STARTCHAR 00D1
ENCODING 209
SWIDTH 1000 0
DWIDTH 8 0
BBX 6 7 1 1
BITMAP
64
98
00
CC
EC
DC
CC
ENDCHAR
STARTCHAR 00D2
ENCODING 210
SWIDTH 1000 0
DWIDTH 8 0
BBX 7 7 0 1
BITMAP
30
00
7C
C6
C6
C6
7C
ENDCHAR
STARTCHAR 00D3
ENCODING 211
SWIDTH 1000 0
DWIDTH 8 0
BBX 7 7 0 1
BITMAP
0C
00
7C
C6
C6
C6
7C
ENDCHAR
STARTCHAR 00D4
ENCODING 212
SWIDTH 1000 0
DWIDTH 8 0
BBX 7 7 0 1
BITMAP
38
00
7C
C6
C6
C6
7C
ENDCHAR
STARTCHAR 00D5
ENCODING 213
SWIDTH 1000 0
DWIDTH 8 0
BBX 7 7 0 1
BITMAP
7C
00
7C
C6
C6
C6
7C
ENDCHAR
STARTCHAR 00D6
ENCODING 214
SWIDTH 1000 0
DWIDTH 8 0
BBX 7 7 0 1
BITMAP
6C
00
7C
C6
C6
C6
7C
ENDCHAR
STARTCHAR 00D7
ENCODING 215
SWIDTH 1000 0
DWIDTH 8 0
BBX 7 6 0 1
BITMAP
C6
6C
38
38
6C
C6
ENDCHAR
STARTCHAR 00D8
ENCODING 216
SWIDTH 1125 0
DWIDTH 9 0
BBX 8 7 0 1
BITMAP
3B
6C
DE
D6
F6
6C
B8
ENDCHAR
STARTCHAR 00D9
ENCODING 217
SWIDTH 1000 0
DWIDTH 8 0
BBX 6 7 1 1
BITMAP
60
00
CC
CC
CC
CC
78
ENDCHAR
STARTCHAR 00DA
ENCODING 218
SWIDTH 1000 0
DWIDTH 8 0
BBX 6 7 1 1
BITMAP
18
00
CC
CC
CC
CC
78
ENDCHAR
STARTCHAR 00DB
ENCODING 219
SWIDTH 1000 0
DWIDTH 8 0
BBX 6 7 1 1
BITMAP
78
00
CC
CC
CC
CC
78
ENDCHAR
STARTCHAR 00DC
ENCODING 220
SWIDTH 1000 0
DWIDTH 8 0
BBX 6 7 1 1
BITMAP
CC
00
CC
CC
CC
CC
78
ENDCHAR
STARTCHAR 00DD
ENCODING 221
SWIDTH 1000 0
DWIDTH 8 0
BBX 6 7 1 1
BITMAP
60
00
CC
CC
78
30
78
ENDCHAR
STARTCHAR 00DE
ENCODING 222
SWIDTH 875 0
DWIDTH 7 0
BBX 6 7 0 1
BITMAP
C0
F8
C4
C4
C4
F8
C0
ENDCHAR
STARTCHAR 00DF
ENCODING 223
SWIDTH 1000 0
DWIDTH 8 0
BBX 7 7 0 1
BITMAP
78
C6
C6
FC
C6
C6
F8
ENDCHAR
STARTCHAR 00E0
ENCODING 224
SWIDTH 1000 0
DWIDTH 8 0
BBX 7 7 0 1
BITMAP
60
00
78
0C
7C
CC
76
ENDCHAR
STARTCHAR 00E1
ENCODING 225
SWIDTH 1000 0
DWIDTH 8 0
BBX 7 7 0 1
BITMAP
18
00
78
0C
7C
CC
76
ENDCHAR
STARTCHAR 00E2
ENCODING 226
SWIDTH 1000 0
DWIDTH 8 0
BBX 7 7 0 1
BITMAP
38
00
78
0C
7C
CC
76
ENDCHAR
STARTCHAR 00E3
ENCODING 227
SWIDTH 1000 0
DWIDTH 8 0
BBX 7 7 0 1
BITMAP
7C
00
78
0C
7C
CC
76
ENDCHAR
STARTCHAR 00E4
ENCODING 228
SWIDTH 1000 0
DWIDTH 8 0
BBX 7 7 0 1
BITMAP
6C
00
78
0C
7C
CC
76
ENDCHAR
STARTCHAR 00E5
ENCODING 229
SWIDTH 1000 0
DWIDTH 8 0
BBX 7 7 0 1
BITMAP
30
48
78
0C
7C
CC
76
ENDCHAR
STARTCHAR 00E6
ENCODING 230
SWIDTH 1000 0
DWIDTH 8 0
BBX 7 5 0 1
BITMAP
7C
12
7E
D8
76
ENDCHAR
STARTCHAR 00E7
ENCODING 231
SWIDTH 1000 0
DWIDTH 8 0
BBX 6 6 1 0
BITMAP
78
C4
C0
7C
10
30
ENDCHAR
STARTCHAR 00E8
ENCODING 232
SWIDTH 1000 0
DWIDTH 8 0
BBX 6 7 1 1
BITMAP
60
00
78
CC
FC
C0
78
ENDCHAR
STARTCHAR 00E9
ENCODING 233
SWIDTH 1000 0
DWIDTH 8 0
BBX 6 7 1 1
BITMAP
18
00
78
CC
FC
C0
78
ENDCHAR
STARTCHAR 00EA
ENCODING 234
SWIDTH 1000 0
DWIDTH 8 0
BBX 6 7 1 1
BITMAP
78
00
78
CC
FC
C0
78
ENDCHAR
STARTCHAR 00EB
ENCODING 235
SWIDTH 1000 0
DWIDTH 8 0
BBX 6 7 1 1
BITMAP
CC
00
78
CC
FC
C0
78
ENDCHAR
STARTCHAR 00EC
ENCODING 236
SWIDTH 875 0
DWIDTH 7 0
BBX 4 7 2 1
BITMAP
C0
60
00
E0
60
60
F0
ENDCHAR
STARTCHAR 00ED
ENCODING 237
SWIDTH 875 0
DWIDTH 7 0
BBX 4 7 2 1
BITMAP
30
60
00
E0
60
60
F0
ENDCHAR
STARTCHAR 00EE
ENCODING 238
SWIDTH 875 0
DWIDTH 7 0
BBX 4 7 2 1
BITMAP
60
90
00
E0
60
60
F0
ENDCHAR
STARTCHAR 00EF
ENCODING 239
SWIDTH 1000 0
DWIDTH 8 0
BBX 6 6 1 1
BITMAP
CC
00
70
30
30
78
ENDCHAR
STARTCHAR 00F0
ENCODING 240
SWIDTH 1000 0
DWIDTH 8 0
BBX 6 7 1 1
BITMAP
EC
30
D8
38
CC
CC
78
ENDCHAR
STARTCHAR 00F1
ENCODING 241
SWIDTH 1000 0
DWIDTH 8 0
BBX 7 7 0 1
BITMAP
32
4C
00
DC
66
66
66
ENDCHAR
STARTCHAR 00F2
ENCODING 242
SWIDTH 1000 0
DWIDTH 8 0
BBX 6 7 1 1
BITMAP
60
30
00
78
CC
CC
78
ENDCHAR
STARTCHAR 00F3
ENCODING 243
SWIDTH 1000 0
DWIDTH 8 0
BBX 6 7 1 1
BITMAP
18
30
00
78
CC
CC
78
ENDCHAR
STARTCHAR 00F4
ENCODING 244
SWIDTH 1000 0
DWIDTH 8 0
BBX 6 7 1 1
BITMAP
30
48
00
78
CC
CC
78
ENDCHAR
STARTCHAR 00F5
ENCODING 245
SWIDTH 1000 0
DWIDTH 8 0
BBX 6 7 1 1
BITMAP
64
98
00
78
CC
CC
78
ENDCHAR
STARTCHAR 00F6
ENCODING 246
SWIDTH 1000 0
DWIDTH 8 0
BBX 6 6 1 1
BITMAP
CC
00
78
CC
CC
78
ENDCHAR
STARTCHAR 00F7
ENCODING 247
SWIDTH 1000 0
DWIDTH 8 0
BBX 6 7 1 1
BITMAP
30
30
00
FC
00
30
30
ENDCHAR
STARTCHAR 00F8
ENCODING 248
SWIDTH 1125 0
DWIDTH 9 0
BBX 8 6 0 0
BITMAP
03
3C
6E
76
3C
C0
ENDCHAR
STARTCHAR 00F9
ENCODING 249
SWIDTH 1000 0
DWIDTH 8 0
BBX 6 7 1 1
BITMAP
60
30
00
CC
CC
CC
7C
ENDCHAR
STARTCHAR 00FA
ENCODING 250
SWIDTH 1000 0
DWIDTH 8 0
BBX 6 7 1 1
BITMAP
18
30
00
CC
CC
CC
7C
ENDCHAR
STARTCHAR 00FB
ENCODING 251
SWIDTH 1000 0
DWIDTH 8 0
BBX 6 7 1 1
BITMAP
30
48
00
CC
CC
CC
7C
ENDCHAR
STARTCHAR 00FC
ENCODING 252
SWIDTH 1000 0
DWIDTH 8 0
BBX 6 6 1 1
BITMAP
CC
00
CC
CC
CC
7C
ENDCHAR
STARTCHAR 00FD
ENCODING 253
SWIDTH 1000 0
DWIDTH 8 0
BBX 6 8 1 0
BITMAP
18
30
00
CC
CC
7C
0C
F8
ENDCHAR
STARTCHAR 00FE
ENCODING 254
SWIDTH 875 0
DWIDTH 7 0
BBX 5 6 1 1
BITMAP
80
F0
88
88
F0
80
ENDCHAR
STARTCHAR 00FF
ENCODING 255
SWIDTH 1000 0
DWIDTH 8 0
BBX 6 7 1 0
BITMAP
CC
00
CC
CC
7C
0C
F8
ENDCHAR
STARTCHAR 2018
ENCODING 8216
SWIDTH 875 0
DWIDTH 7 0
BBX 3 3 3 5
BITMAP
60
C0
C0
ENDCHAR
STARTCHAR 2019
ENCODING 8217
SWIDTH 750 0
DWIDTH 6 0
BBX 3 3 2 5
BITMAP
60
60
C0
ENDCHAR
STARTCHAR 201C
ENCODING 8220
SWIDTH 1000 0
DWIDTH 8 0
BBX 6 3 1 5
BITMAP
6C
D8
D8
ENDCHAR
STARTCHAR 201D
ENCODING 8221
SWIDTH 875 0
DWIDTH 7 0
BBX 6 3 0 5
BITMAP
6C
6C
D8
ENDCHAR
STARTCHAR 20AC
ENCODING 8364
SWIDTH 1000 0
DWIDTH 8 0
BBX 7 7 0 1
BITMAP
3C
42
F8
40
F8
42
3C
ENDCHAR
STARTCHAR 2122
ENCODING 8482
SWIDTH 1000 0
DWIDTH 8 0
BBX 7 3 0 5
BITMAP
EE
4E
4A
ENDCHAR
ENDFONT
